<?xml version="1.0" encoding="UTF-8" standalone="no"?>
<svg
   xmlns:dc="http://purl.org/dc/elements/1.1/"
   xmlns:cc="http://creativecommons.org/ns#"
   xmlns:rdf="http://www.w3.org/1999/02/22-rdf-syntax-ns#"
   xmlns:svg="http://www.w3.org/2000/svg"
   xmlns="http://www.w3.org/2000/svg"
   xmlns:sodipodi="http://sodipodi.sourceforge.net/DTD/sodipodi-0.dtd"
   xmlns:inkscape="http://www.inkscape.org/namespaces/inkscape"
   width="192"
   height="96"
   viewBox="0 0 50.799999 25.400001"
   version="1.1"
   id="svg8"
   inkscape:version="1.0.1 (3bc2e813f5, 2020-09-07)"
   sodipodi:docname="stand.svg">
  <defs
     id="defs2" />
  <sodipodi:namedview
     id="base"
     pagecolor="#ffffff"
     bordercolor="#666666"
     borderopacity="1.0"
     inkscape:pageopacity="0.0"
     inkscape:pageshadow="2"
     inkscape:zoom="5.6568542"
     inkscape:cx="173.23667"
     inkscape:cy="98.162645"
     inkscape:document-units="mm"
     inkscape:current-layer="layer2"
     inkscape:document-rotation="0"
     showgrid="false"
     units="px"
     inkscape:pagecheckerboard="false"
     inkscape:snap-page="true"
     inkscape:window-width="3840"
     inkscape:window-height="2050"
     inkscape:window-x="3348"
     inkscape:window-y="-12"
     inkscape:window-maximized="1" />
  <metadata
     id="metadata5">
    <rdf:RDF>
      <cc:Work
         rdf:about="">
        <dc:format>image/svg+xml</dc:format>
        <dc:type
           rdf:resource="http://purl.org/dc/dcmitype/StillImage" />
        <dc:title></dc:title>
      </cc:Work>
    </rdf:RDF>
  </metadata>
  <g
     inkscape:label="Warstwa 1"
     inkscape:groupmode="layer"
     id="layer1">
    <path
       id="rect833-7"
       style="opacity:0.999;fill:#784421;fill-opacity:1;fill-rule:evenodd;stroke:#000000;stroke-width:0;stroke-linecap:round;stroke-linejoin:round;stroke-dashoffset:125;stroke-opacity:1;paint-order:markers stroke fill"
       d="M 7.0012266,0 H 43.798774 c 1.185222,0 1.865598,1.209209 2.139392,2.645833 l 3.832269,20.108333 C 50.044195,24.190617 48.638225,25.4 47.231848,25.4 H 3.568152 C 2.161775,25.4 0.755805,24.190617 1.029565,22.754166 L 4.8618344,2.645833 C 5.1356281,1.209209 5.8160034,0 7.0012266,0 Z"
       sodipodi:nodetypes="sssssssss" />
    <path
       id="rect833"
       style="opacity:0.999;fill:none;fill-opacity:1;fill-rule:evenodd;stroke:#d4aa00;stroke-width:1.25677;stroke-linecap:round;stroke-linejoin:round;stroke-miterlimit:4;stroke-dasharray:none;stroke-dashoffset:125;stroke-opacity:1;paint-order:markers stroke fill"
       d="M 9.4799022,2.9489358 H 41.044773 c 1.016681,0 1.642543,0.9232041 1.835166,2.037494 l 2.676819,15.4849552 c 0.192386,1.112918 -0.942846,2.037495 -2.114004,2.037495 H 7.0819185 c -1.1711571,0 -2.3063877,-0.924577 -2.1140022,-2.037495 L 7.6447355,4.9864298 C 7.837358,3.8721401 8.4632199,2.9489358 9.4799022,2.9489358 Z"
       sodipodi:nodetypes="sssssssss" />
  </g>
  <g
     inkscape:groupmode="layer"
     id="layer2"
     inkscape:label="Warstwa 2">
    <g
       aria-label="Pierwsze  wydanie
najlepszej dystrybucji
Linuxa na świecie"
       id="text855"
       style="font-style:normal;font-variant:normal;font-weight:600;font-stretch:normal;font-size:3.52778px;line-height:1.25;font-family:'Segoe UI';-inkscape-font-specification:'Segoe UI Semi-Bold';text-align:center;letter-spacing:0px;word-spacing:0px;text-anchor:middle;fill:#d4aa00;fill-opacity:1;stroke:none;stroke-width:0.264583">
      <path
         d="M 11.494726,8.679571 V 9.5752964 H 11.086482 V 7.1051613 h 0.749308 q 0.42547,0 0.659737,0.1980932 0.234266,0.1980931 0.234266,0.5581058 0,0.3600127 -0.244602,0.5891117 -0.244602,0.229099 -0.661458,0.229099 z m 0,-1.2367901 v 0.9026156 h 0.265272 q 0.26355,0 0.401354,-0.1223009 0.137804,-0.122301 0.137804,-0.3445098 0,-0.4358049 -0.506429,-0.4358049 z"
         style="font-style:normal;font-variant:normal;font-weight:600;font-stretch:normal;font-size:3.52778px;font-family:'Segoe UI';-inkscape-font-specification:'Segoe UI Semi-Bold';text-align:center;text-anchor:middle;fill:#d4aa00;stroke-width:0.264583"
         id="path865" />
      <path
         d="m 13.305125,7.4410584 q -0.09819,0 -0.16881,-0.063734 -0.0689,-0.063734 -0.0689,-0.1619196 0,-0.098185 0.0689,-0.1636422 0.07062,-0.065457 0.16881,-0.065457 0.10163,0 0.172255,0.065457 0.07062,0.065457 0.07062,0.1636422 0,0.093018 -0.07062,0.160197 -0.07062,0.065457 -0.172255,0.065457 z m 0.198093,2.134238 h -0.399632 v -1.76389 h 0.399632 z"
         style="font-style:normal;font-variant:normal;font-weight:600;font-stretch:normal;font-size:3.52778px;font-family:'Segoe UI';-inkscape-font-specification:'Segoe UI Semi-Bold';text-align:center;text-anchor:middle;fill:#d4aa00;stroke-width:0.264583"
         id="path867" />
      <path
         d="m 15.5186,8.801872 h -1.202339 q 0.0069,0.2446019 0.149862,0.3772382 0.144694,0.1326362 0.396186,0.1326362 0.282498,0 0.518487,-0.1688098 v 0.3221167 q -0.241157,0.1515843 -0.637343,0.1515843 -0.389296,0 -0.611505,-0.2394343 -0.220486,-0.2411569 -0.220486,-0.6769617 0,-0.4116892 0.242879,-0.6700715 0.244602,-0.2601049 0.606337,-0.2601049 0.361736,0 0.559829,0.2325441 Q 15.5186,8.2351534 15.5186,8.6485651 Z M 15.132749,8.519374 q -0.0017,-0.2153187 -0.10163,-0.3341745 -0.09991,-0.1205784 -0.275608,-0.1205784 -0.172255,0 -0.292834,0.125746 -0.118855,0.1257461 -0.146416,0.3290069 z"
         style="font-style:normal;font-variant:normal;font-weight:600;font-stretch:normal;font-size:3.52778px;font-family:'Segoe UI';-inkscape-font-specification:'Segoe UI Semi-Bold';text-align:center;text-anchor:middle;fill:#d4aa00;stroke-width:0.264583"
         id="path869" />
      <path
         d="m 16.922477,8.1920897 q -0.07235,-0.056844 -0.208428,-0.056844 -0.177423,0 -0.296279,0.160197 -0.118856,0.160197 -0.118856,0.4358049 v 0.8440489 h -0.399631 v -1.76389 h 0.399631 v 0.3634578 h 0.0069 q 0.05857,-0.1860353 0.179145,-0.2893882 0.122301,-0.1050755 0.272162,-0.1050755 0.108521,0 0.165365,0.032728 z"
         style="font-style:normal;font-variant:normal;font-weight:600;font-stretch:normal;font-size:3.52778px;font-family:'Segoe UI';-inkscape-font-specification:'Segoe UI Semi-Bold';text-align:center;text-anchor:middle;fill:#d4aa00;stroke-width:0.264583"
         id="path871" />
      <path
         d="m 19.709561,7.8114064 -0.52021,1.76389 H 18.770772 L 18.450378,8.3798475 q -0.01895,-0.068902 -0.02412,-0.1550294 h -0.0069 q -0.0034,0.058567 -0.03101,0.1515843 l -0.347955,1.198894 h -0.409966 l -0.518487,-1.76389 h 0.413411 l 0.320394,1.271241 q 0.0155,0.056844 0.02067,0.1515843 h 0.01206 q 0.0052,-0.072347 0.02756,-0.1550294 L 18.26262,7.8114064 h 0.375516 l 0.316949,1.2764087 q 0.0155,0.060289 0.02239,0.1515843 h 0.01206 q 0.0034,-0.063734 0.02584,-0.1515843 l 0.313504,-1.2764087 z"
         style="font-style:normal;font-variant:normal;font-weight:600;font-stretch:normal;font-size:3.52778px;font-family:'Segoe UI';-inkscape-font-specification:'Segoe UI Semi-Bold';text-align:center;text-anchor:middle;fill:#d4aa00;stroke-width:0.264583"
         id="path873" />
      <path
         d="m 19.895596,9.5201748 v -0.370348 q 0.223931,0.1705324 0.494371,0.1705324 0.361736,0 0.361736,-0.2135961 0,-0.060289 -0.03101,-0.1016304 -0.03101,-0.043064 -0.08441,-0.075792 -0.05168,-0.032728 -0.124024,-0.058567 -0.07062,-0.025838 -0.158474,-0.058567 -0.108521,-0.043064 -0.196371,-0.091295 -0.08613,-0.048231 -0.144694,-0.1085206 -0.05684,-0.062012 -0.08613,-0.1395265 -0.02928,-0.077515 -0.02928,-0.1808676 0,-0.1274686 0.06029,-0.2239313 0.06029,-0.098185 0.161919,-0.1636422 0.101631,-0.067179 0.230822,-0.099908 0.129191,-0.034451 0.266995,-0.034451 0.244602,0 0.437527,0.07407 v 0.3496774 q -0.186035,-0.1274686 -0.427192,-0.1274686 -0.07579,0 -0.137804,0.015503 -0.06029,0.015503 -0.103353,0.043064 -0.04306,0.027561 -0.06718,0.067179 -0.02412,0.037896 -0.02412,0.084405 0,0.056844 0.02412,0.096463 0.02412,0.039619 0.07062,0.070625 0.04823,0.029283 0.113689,0.055122 0.06718,0.024116 0.153307,0.053399 0.113688,0.046509 0.20326,0.09474 0.09129,0.048231 0.15503,0.1102431 0.06373,0.060289 0.09818,0.141249 0.03445,0.079237 0.03445,0.1894804 0,0.1343588 -0.06201,0.2342666 -0.06201,0.099908 -0.165364,0.1653647 -0.103353,0.065457 -0.239435,0.096463 -0.134359,0.032729 -0.28422,0.032729 -0.289389,0 -0.501262,-0.096463 z"
         style="font-style:normal;font-variant:normal;font-weight:600;font-stretch:normal;font-size:3.52778px;font-family:'Segoe UI';-inkscape-font-specification:'Segoe UI Semi-Bold';text-align:center;text-anchor:middle;fill:#d4aa00;stroke-width:0.264583"
         id="path875" />
      <path
         d="m 22.829097,7.9784936 -0.952569,1.2850215 h 0.949124 V 9.5752964 H 21.316699 V 9.4254347 L 22.28994,8.1231877 H 21.409717 V 7.8114064 h 1.41938 z"
         style="font-style:normal;font-variant:normal;font-weight:600;font-stretch:normal;font-size:3.52778px;font-family:'Segoe UI';-inkscape-font-specification:'Segoe UI Semi-Bold';text-align:center;text-anchor:middle;fill:#d4aa00;stroke-width:0.264583"
         id="path877" />
      <path
         d="m 24.658444,8.801872 h -1.202339 q 0.0069,0.2446019 0.149861,0.3772382 0.144695,0.1326362 0.396187,0.1326362 0.282498,0 0.518487,-0.1688098 v 0.3221167 q -0.241157,0.1515843 -0.637343,0.1515843 -0.389296,0 -0.611505,-0.2394343 -0.220486,-0.2411569 -0.220486,-0.6769617 0,-0.4116892 0.242879,-0.6700715 0.244602,-0.2601049 0.606337,-0.2601049 0.361736,0 0.559829,0.2325441 0.198093,0.2325441 0.198093,0.6459558 z M 24.272593,8.519374 q -0.0017,-0.2153187 -0.10163,-0.3341745 -0.09991,-0.1205784 -0.275608,-0.1205784 -0.172255,0 -0.292834,0.125746 -0.118855,0.1257461 -0.146416,0.3290069 z"
         style="font-style:normal;font-variant:normal;font-weight:600;font-stretch:normal;font-size:3.52778px;font-family:'Segoe UI';-inkscape-font-specification:'Segoe UI Semi-Bold';text-align:center;text-anchor:middle;fill:#d4aa00;stroke-width:0.264583"
         id="path879" />
      <path
         d="m 29.350667,7.8114064 -0.520209,1.76389 h -0.41858 L 28.091484,8.3798475 q -0.01895,-0.068902 -0.02412,-0.1550294 h -0.0069 q -0.0034,0.058567 -0.03101,0.1515843 l -0.347955,1.198894 h -0.409966 l -0.518487,-1.76389 h 0.413411 l 0.320394,1.271241 q 0.0155,0.056844 0.02067,0.1515843 h 0.01206 q 0.0052,-0.072347 0.02756,-0.1550294 l 0.356567,-1.2677959 h 0.375516 l 0.316949,1.2764087 q 0.0155,0.060289 0.02239,0.1515843 h 0.01206 q 0.0034,-0.063734 0.02584,-0.1515843 l 0.313504,-1.2764087 z"
         style="font-style:normal;font-variant:normal;font-weight:600;font-stretch:normal;font-size:3.52778px;font-family:'Segoe UI';-inkscape-font-specification:'Segoe UI Semi-Bold';text-align:center;text-anchor:middle;fill:#d4aa00;stroke-width:0.264583"
         id="path881" />
      <path
         d="m 31.174846,7.8114064 -0.795818,2.046388 q -0.248047,0.5477706 -0.69591,0.5477706 -0.125746,0 -0.210151,-0.02239 V 10.05072 q 0.09474,0.03101 0.172255,0.03101 0.223932,0 0.334175,-0.2204865 L 30.098253,9.5718513 29.397175,7.8114064 h 0.442695 l 0.420302,1.2815763 q 0.0069,0.024116 0.03101,0.1274686 h 0.0086 q 0.0086,-0.039619 0.03101,-0.1240235 l 0.440972,-1.2850214 z"
         style="font-style:normal;font-variant:normal;font-weight:600;font-stretch:normal;font-size:3.52778px;font-family:'Segoe UI';-inkscape-font-specification:'Segoe UI Semi-Bold';text-align:center;text-anchor:middle;fill:#d4aa00;stroke-width:0.264583"
         id="path883" />
      <path
         d="M 33.017974,9.5752964 H 32.618342 V 9.2755729 h -0.0069 q -0.192925,0.3410647 -0.594279,0.3410647 -0.325562,0 -0.521933,-0.2359892 -0.194648,-0.2377118 -0.194648,-0.6459558 0,-0.4375274 0.215319,-0.7010774 0.217041,-0.26355 0.577054,-0.26355 0.356568,0 0.518487,0.2859431 h 0.0069 v -1.092096 h 0.399632 z M 32.62351,8.7691435 V 8.538322 q 0,-0.1877578 -0.122301,-0.3186715 -0.122301,-0.1309138 -0.311781,-0.1309138 -0.223932,0 -0.353123,0.1670873 -0.127469,0.1670872 -0.127469,0.4633656 0,0.2687176 0.122301,0.4254696 0.124024,0.1550294 0.332452,0.1550294 0.204984,0 0.332452,-0.1498618 0.127469,-0.1515843 0.127469,-0.3806833 z"
         style="font-style:normal;font-variant:normal;font-weight:600;font-stretch:normal;font-size:3.52778px;font-family:'Segoe UI';-inkscape-font-specification:'Segoe UI Semi-Bold';text-align:center;text-anchor:middle;fill:#d4aa00;stroke-width:0.264583"
         id="path885" />
      <path
         d="M 34.89383,9.5752964 H 34.506256 V 9.2996886 h -0.0069 q -0.18259,0.316949 -0.535713,0.316949 -0.260105,0 -0.408244,-0.141249 -0.146416,-0.141249 -0.146416,-0.3737931 0,-0.4995392 0.575331,-0.5822215 l 0.523655,-0.07407 q 0,-0.3772382 -0.35829,-0.3772382 -0.315227,0 -0.568442,0.2170411 V 7.9354299 q 0.279053,-0.1653647 0.644234,-0.1653647 0.668349,0 0.668349,0.6580137 z m -0.385851,-0.8664421 -0.370348,0.051676 q -0.172255,0.022393 -0.260105,0.084405 -0.08613,0.060289 -0.08613,0.213596 0,0.1119657 0.07924,0.1843128 0.08096,0.070624 0.215318,0.070624 0.18259,0 0.301446,-0.1274686 0.120579,-0.1291912 0.120579,-0.3238392 z"
         style="font-style:normal;font-variant:normal;font-weight:600;font-stretch:normal;font-size:3.52778px;font-family:'Segoe UI';-inkscape-font-specification:'Segoe UI Semi-Bold';text-align:center;text-anchor:middle;fill:#d4aa00;stroke-width:0.264583"
         id="path887" />
      <path
         d="M 36.952275,9.5752964 H 36.552643 V 8.5813857 q 0,-0.4943715 -0.349677,-0.4943715 -0.18259,0 -0.301446,0.1378039 -0.118856,0.1360814 -0.118856,0.3445098 V 9.5752964 H 35.38131 v -1.76389 h 0.401354 v 0.2928333 h 0.0069 q 0.198093,-0.3341745 0.571887,-0.3341745 0.287665,0 0.439249,0.1877578 0.151585,0.1860353 0.151585,0.5391578 z"
         style="font-style:normal;font-variant:normal;font-weight:600;font-stretch:normal;font-size:3.52778px;font-family:'Segoe UI';-inkscape-font-specification:'Segoe UI Semi-Bold';text-align:center;text-anchor:middle;fill:#d4aa00;stroke-width:0.264583"
         id="path889" />
      <path
         d="m 37.641295,7.4410584 q -0.09819,0 -0.168809,-0.063734 -0.0689,-0.063734 -0.0689,-0.1619196 0,-0.098185 0.0689,-0.1636422 0.07062,-0.065457 0.168809,-0.065457 0.101631,0 0.172255,0.065457 0.07062,0.065457 0.07062,0.1636422 0,0.093018 -0.07062,0.160197 -0.07062,0.065457 -0.172255,0.065457 z m 0.198093,2.134238 h -0.399631 v -1.76389 h 0.399631 z"
         style="font-style:normal;font-variant:normal;font-weight:600;font-stretch:normal;font-size:3.52778px;font-family:'Segoe UI';-inkscape-font-specification:'Segoe UI Semi-Bold';text-align:center;text-anchor:middle;fill:#d4aa00;stroke-width:0.264583"
         id="path891" />
      <path
         d="m 39.854771,8.801872 h -1.202339 q 0.0069,0.2446019 0.149862,0.3772382 0.144694,0.1326362 0.396186,0.1326362 0.282498,0 0.518487,-0.1688098 v 0.3221167 q -0.241157,0.1515843 -0.637343,0.1515843 -0.389296,0 -0.611505,-0.2394343 -0.220486,-0.2411569 -0.220486,-0.6769617 0,-0.4116892 0.242879,-0.6700715 0.244602,-0.2601049 0.606338,-0.2601049 0.361735,0 0.559828,0.2325441 0.198093,0.2325441 0.198093,0.6459558 z M 39.46892,8.519374 q -0.0017,-0.2153187 -0.10163,-0.3341745 -0.09991,-0.1205784 -0.275608,-0.1205784 -0.172255,0 -0.292833,0.125746 -0.118856,0.1257461 -0.146417,0.3290069 z"
         style="font-style:normal;font-variant:normal;font-weight:600;font-stretch:normal;font-size:3.52778px;font-family:'Segoe UI';-inkscape-font-specification:'Segoe UI Semi-Bold';text-align:center;text-anchor:middle;fill:#d4aa00;stroke-width:0.264583"
         id="path893" />
      <path
         d="M 10.055536,13.985021 H 9.6559048 v -0.99391 q 0,-0.494372 -0.3496774,-0.494372 -0.1825902,0 -0.3014461,0.137804 -0.1188558,0.136082 -0.1188558,0.34451 v 1.005968 H 8.4845716 v -1.76389 h 0.4013539 v 0.292834 h 0.00689 q 0.1980932,-0.334175 0.5718863,-0.334175 0.2876656,0 0.4392499,0.187758 0.1515842,0.186035 0.1515842,0.539158 z"
         style="font-style:normal;font-variant:normal;font-weight:600;font-stretch:normal;font-size:3.52778px;font-family:'Segoe UI';-inkscape-font-specification:'Segoe UI Semi-Bold';text-align:center;text-anchor:middle;fill:#d4aa00;stroke-width:0.264583"
         id="path895" />
      <path
         d="m 11.896941,13.985021 h -0.387574 v -0.275607 h -0.0069 q -0.18259,0.316949 -0.535712,0.316949 -0.260105,0 -0.408245,-0.141249 -0.146416,-0.141249 -0.146416,-0.373793 0,-0.49954 0.575331,-0.582222 l 0.523655,-0.07407 q 0,-0.377238 -0.35829,-0.377238 -0.315227,0 -0.568441,0.217041 v -0.349677 q 0.279053,-0.165365 0.644233,-0.165365 0.668349,0 0.668349,0.658014 z m -0.385851,-0.866442 -0.370348,0.05168 q -0.172255,0.02239 -0.260105,0.08441 -0.08613,0.06029 -0.08613,0.213596 0,0.111965 0.07924,0.184313 0.08096,0.07062 0.215318,0.07062 0.182591,0 0.301447,-0.127469 0.120578,-0.129191 0.120578,-0.323839 z"
         style="font-style:normal;font-variant:normal;font-weight:600;font-stretch:normal;font-size:3.52778px;font-family:'Segoe UI';-inkscape-font-specification:'Segoe UI Semi-Bold';text-align:center;text-anchor:middle;fill:#d4aa00;stroke-width:0.264583"
         id="path897" />
      <path
         d="m 12.784054,13.910952 q 0,0.434082 -0.182591,0.668349 -0.18259,0.235989 -0.521932,0.235989 -0.125746,0 -0.244602,-0.05512 v -0.342787 q 0.111966,0.07752 0.211874,0.07752 0.337619,0 0.337619,-0.596002 v -1.677763 h 0.399632 z m -0.196371,-2.060169 q -0.09819,0 -0.16881,-0.06373 -0.0689,-0.06373 -0.0689,-0.161919 0,-0.09819 0.0689,-0.163643 0.07062,-0.06546 0.16881,-0.06546 0.09991,0 0.170532,0.06546 0.07062,0.06546 0.07062,0.163643 0,0.09302 -0.07062,0.160197 -0.07062,0.06546 -0.170532,0.06546 z"
         style="font-style:normal;font-variant:normal;font-weight:600;font-stretch:normal;font-size:3.52778px;font-family:'Segoe UI';-inkscape-font-specification:'Segoe UI Semi-Bold';text-align:center;text-anchor:middle;fill:#d4aa00;stroke-width:0.264583"
         id="path899" />
      <path
         d="m 13.707339,13.985021 h -0.401353 v -2.611384 h 0.401353 z"
         style="font-style:normal;font-variant:normal;font-weight:600;font-stretch:normal;font-size:3.52778px;font-family:'Segoe UI';-inkscape-font-specification:'Segoe UI Semi-Bold';text-align:center;text-anchor:middle;fill:#d4aa00;stroke-width:0.264583"
         id="path901" />
      <path
         d="m 15.721,13.211597 h -1.20234 q 0.0069,0.244602 0.149862,0.377238 0.144694,0.132636 0.396186,0.132636 0.282498,0 0.518488,-0.168809 v 0.322116 q -0.241157,0.151585 -0.637343,0.151585 -0.389297,0 -0.611505,-0.239435 -0.220487,-0.241156 -0.220487,-0.676961 0,-0.41169 0.24288,-0.670072 0.244602,-0.260105 0.606337,-0.260105 0.361735,0 0.559828,0.232544 Q 15.721,12.644878 15.721,13.05829 Z m -0.385851,-0.282498 q -0.0017,-0.215319 -0.101631,-0.334174 -0.09991,-0.120579 -0.275608,-0.120579 -0.172255,0 -0.292833,0.125746 -0.118856,0.125746 -0.146417,0.329007 z"
         style="font-style:normal;font-variant:normal;font-weight:600;font-stretch:normal;font-size:3.52778px;font-family:'Segoe UI';-inkscape-font-specification:'Segoe UI Semi-Bold';text-align:center;text-anchor:middle;fill:#d4aa00;stroke-width:0.264583"
         id="path903" />
      <path
         d="m 16.508204,13.724917 h -0.0069 v 1.071425 h -0.399631 v -2.575211 h 0.399631 v 0.310059 h 0.0069 q 0.204984,-0.3514 0.599447,-0.3514 0.335897,0 0.523655,0.235989 0.187758,0.23599 0.187758,0.633898 0,0.440973 -0.211874,0.706245 -0.211873,0.265273 -0.578776,0.265273 -0.33762,0 -0.52021,-0.296278 z m -0.01033,-0.69591 v 0.218764 q 0,0.192925 0.122301,0.327284 0.124023,0.134359 0.313504,0.134359 0.222209,0 0.347955,-0.172255 0.127468,-0.173978 0.127468,-0.484036 0,-0.260105 -0.118856,-0.406522 -0.117133,-0.148139 -0.318671,-0.148139 -0.213596,0 -0.34451,0.151584 -0.129191,0.151584 -0.129191,0.378961 z"
         style="font-style:normal;font-variant:normal;font-weight:600;font-stretch:normal;font-size:3.52778px;font-family:'Segoe UI';-inkscape-font-specification:'Segoe UI Semi-Bold';text-align:center;text-anchor:middle;fill:#d4aa00;stroke-width:0.264583"
         id="path905" />
      <path
         d="m 18.117065,13.9299 v -0.370348 q 0.223932,0.170532 0.494372,0.170532 0.361735,0 0.361735,-0.213596 0,-0.06029 -0.03101,-0.10163 -0.03101,-0.04306 -0.08441,-0.07579 -0.05168,-0.03273 -0.124023,-0.05857 -0.07062,-0.02584 -0.158475,-0.05857 -0.10852,-0.04306 -0.19637,-0.0913 -0.08613,-0.04823 -0.144694,-0.10852 -0.05684,-0.06201 -0.08613,-0.139527 -0.02928,-0.07751 -0.02928,-0.180867 0,-0.127469 0.06029,-0.223932 0.06029,-0.09818 0.16192,-0.163642 0.10163,-0.06718 0.230821,-0.09991 0.129191,-0.03445 0.266995,-0.03445 0.244602,0 0.437528,0.07407 v 0.349677 q -0.186036,-0.127468 -0.427192,-0.127468 -0.07579,0 -0.137804,0.0155 -0.06029,0.0155 -0.103353,0.04306 -0.04306,0.02756 -0.06718,0.06718 -0.02411,0.0379 -0.02411,0.08441 0,0.05684 0.02411,0.09646 0.02412,0.03962 0.07062,0.07062 0.04823,0.02928 0.113688,0.05512 0.06718,0.02412 0.153307,0.0534 0.113688,0.04651 0.203261,0.09474 0.09129,0.04823 0.155029,0.110243 0.06373,0.06029 0.09819,0.141249 0.03445,0.07924 0.03445,0.18948 0,0.134359 -0.06201,0.234267 -0.06201,0.09991 -0.165365,0.165364 -0.103353,0.06546 -0.239434,0.09646 -0.134359,0.03273 -0.284221,0.03273 -0.289388,0 -0.501262,-0.09646 z"
         style="font-style:normal;font-variant:normal;font-weight:600;font-stretch:normal;font-size:3.52778px;font-family:'Segoe UI';-inkscape-font-specification:'Segoe UI Semi-Bold';text-align:center;text-anchor:middle;fill:#d4aa00;stroke-width:0.264583"
         id="path907" />
      <path
         d="m 21.050566,12.388219 -0.95257,1.285021 h 0.949125 v 0.311781 H 19.538168 V 13.83516 l 0.97324,-1.302247 h -0.880223 v -0.311782 h 1.419381 z"
         style="font-style:normal;font-variant:normal;font-weight:600;font-stretch:normal;font-size:3.52778px;font-family:'Segoe UI';-inkscape-font-specification:'Segoe UI Semi-Bold';text-align:center;text-anchor:middle;fill:#d4aa00;stroke-width:0.264583"
         id="path909" />
      <path
         d="m 22.879912,13.211597 h -1.202339 q 0.0069,0.244602 0.149862,0.377238 0.144694,0.132636 0.396186,0.132636 0.282498,0 0.518487,-0.168809 v 0.322116 q -0.241157,0.151585 -0.637343,0.151585 -0.389296,0 -0.611505,-0.239435 -0.220486,-0.241156 -0.220486,-0.676961 0,-0.41169 0.242879,-0.670072 0.244602,-0.260105 0.606338,-0.260105 0.361735,0 0.559828,0.232544 0.198093,0.232544 0.198093,0.645956 z m -0.385851,-0.282498 q -0.0017,-0.215319 -0.10163,-0.334174 -0.09991,-0.120579 -0.275608,-0.120579 -0.172255,0 -0.292833,0.125746 -0.118856,0.125746 -0.146417,0.329007 z"
         style="font-style:normal;font-variant:normal;font-weight:600;font-stretch:normal;font-size:3.52778px;font-family:'Segoe UI';-inkscape-font-specification:'Segoe UI Semi-Bold';text-align:center;text-anchor:middle;fill:#d4aa00;stroke-width:0.264583"
         id="path911" />
      <path
         d="m 23.660227,13.910952 q 0,0.434082 -0.18259,0.668349 -0.182591,0.235989 -0.521933,0.235989 -0.125746,0 -0.244602,-0.05512 v -0.342787 q 0.111966,0.07752 0.211874,0.07752 0.337619,0 0.337619,-0.596002 v -1.677763 h 0.399632 z m -0.196371,-2.060169 q -0.09819,0 -0.16881,-0.06373 -0.0689,-0.06373 -0.0689,-0.161919 0,-0.09819 0.0689,-0.163643 0.07062,-0.06546 0.16881,-0.06546 0.09991,0 0.170533,0.06546 0.07062,0.06546 0.07062,0.163643 0,0.09302 -0.07062,0.160197 -0.07062,0.06546 -0.170533,0.06546 z"
         style="font-style:normal;font-variant:normal;font-weight:600;font-stretch:normal;font-size:3.52778px;font-family:'Segoe UI';-inkscape-font-specification:'Segoe UI Semi-Bold';text-align:center;text-anchor:middle;fill:#d4aa00;stroke-width:0.264583"
         id="path913" />
      <path
         d="m 26.755648,13.985021 h -0.399632 v -0.299723 h -0.0069 q -0.192925,0.341065 -0.594279,0.341065 -0.325562,0 -0.521932,-0.23599 -0.194648,-0.237711 -0.194648,-0.645955 0,-0.437528 0.215318,-0.701078 0.217041,-0.26355 0.577054,-0.26355 0.356568,0 0.518487,0.285943 h 0.0069 v -1.092096 h 0.399632 z m -0.394464,-0.806152 v -0.230822 q 0,-0.187758 -0.122301,-0.318671 -0.122301,-0.130914 -0.311781,-0.130914 -0.223932,0 -0.353123,0.167087 -0.127468,0.167087 -0.127468,0.463366 0,0.268717 0.122301,0.425469 0.124023,0.15503 0.332452,0.15503 0.204983,0 0.332451,-0.149862 0.127469,-0.151584 0.127469,-0.380683 z"
         style="font-style:normal;font-variant:normal;font-weight:600;font-stretch:normal;font-size:3.52778px;font-family:'Segoe UI';-inkscape-font-specification:'Segoe UI Semi-Bold';text-align:center;text-anchor:middle;fill:#d4aa00;stroke-width:0.264583"
         id="path915" />
      <path
         d="m 28.805481,12.221131 -0.795817,2.046388 q -0.248047,0.547771 -0.69591,0.547771 -0.125746,0 -0.210151,-0.02239 v -0.332452 q 0.09474,0.03101 0.172255,0.03101 0.223931,0 0.334174,-0.220486 l 0.118856,-0.289389 -0.701077,-1.760445 h 0.442695 l 0.420302,1.281577 q 0.0069,0.02412 0.03101,0.127468 h 0.0086 q 0.0086,-0.03962 0.03101,-0.124023 l 0.440973,-1.285022 z"
         style="font-style:normal;font-variant:normal;font-weight:600;font-stretch:normal;font-size:3.52778px;font-family:'Segoe UI';-inkscape-font-specification:'Segoe UI Semi-Bold';text-align:center;text-anchor:middle;fill:#d4aa00;stroke-width:0.264583"
         id="path917" />
      <path
         d="m 28.96051,13.9299 v -0.370348 q 0.223931,0.170532 0.494372,0.170532 0.361735,0 0.361735,-0.213596 0,-0.06029 -0.03101,-0.10163 -0.03101,-0.04306 -0.08441,-0.07579 -0.05168,-0.03273 -0.124023,-0.05857 -0.07063,-0.02584 -0.158475,-0.05857 -0.108521,-0.04306 -0.19637,-0.0913 -0.08613,-0.04823 -0.144695,-0.10852 -0.05684,-0.06201 -0.08613,-0.139527 -0.02928,-0.07751 -0.02928,-0.180867 0,-0.127469 0.06029,-0.223932 0.06029,-0.09818 0.161919,-0.163642 0.101631,-0.06718 0.230822,-0.09991 0.129191,-0.03445 0.266995,-0.03445 0.244602,0 0.437527,0.07407 v 0.349677 q -0.186035,-0.127468 -0.427192,-0.127468 -0.07579,0 -0.137804,0.0155 -0.06029,0.0155 -0.103352,0.04306 -0.04306,0.02756 -0.06718,0.06718 -0.02412,0.0379 -0.02412,0.08441 0,0.05684 0.02412,0.09646 0.02412,0.03962 0.07062,0.07062 0.04823,0.02928 0.113688,0.05512 0.06718,0.02412 0.153307,0.0534 0.113688,0.04651 0.20326,0.09474 0.0913,0.04823 0.15503,0.110243 0.06373,0.06029 0.09819,0.141249 0.03445,0.07924 0.03445,0.18948 0,0.134359 -0.06201,0.234267 -0.06201,0.09991 -0.165364,0.165364 -0.103353,0.06546 -0.239435,0.09646 -0.134358,0.03273 -0.28422,0.03273 -0.289388,0 -0.501262,-0.09646 z"
         style="font-style:normal;font-variant:normal;font-weight:600;font-stretch:normal;font-size:3.52778px;font-family:'Segoe UI';-inkscape-font-specification:'Segoe UI Semi-Bold';text-align:center;text-anchor:middle;fill:#d4aa00;stroke-width:0.264583"
         id="path919" />
      <path
         d="m 31.521941,13.966073 q -0.117133,0.05857 -0.308336,0.05857 -0.51332,0 -0.51332,-0.492649 v -0.997356 h -0.294556 v -0.313504 h 0.294556 v -0.408244 l 0.399631,-0.113688 v 0.521932 h 0.422025 v 0.313504 h -0.422025 v 0.881945 q 0,0.156752 0.05684,0.223932 0.05684,0.06718 0.18948,0.06718 0.10163,0 0.1757,-0.05857 z"
         style="font-style:normal;font-variant:normal;font-weight:600;font-stretch:normal;font-size:3.52778px;font-family:'Segoe UI';-inkscape-font-specification:'Segoe UI Semi-Bold';text-align:center;text-anchor:middle;fill:#d4aa00;stroke-width:0.264583"
         id="path921" />
      <path
         d="m 32.889643,12.601815 q -0.07235,-0.05684 -0.208428,-0.05684 -0.177422,0 -0.296278,0.160197 -0.118856,0.160197 -0.118856,0.435805 v 0.844048 h -0.399632 v -1.76389 h 0.399632 v 0.363458 h 0.0069 q 0.05857,-0.186035 0.179145,-0.289388 0.122301,-0.105075 0.272163,-0.105075 0.10852,0 0.165364,0.03273 z"
         style="font-style:normal;font-variant:normal;font-weight:600;font-stretch:normal;font-size:3.52778px;font-family:'Segoe UI';-inkscape-font-specification:'Segoe UI Semi-Bold';text-align:center;text-anchor:middle;fill:#d4aa00;stroke-width:0.264583"
         id="path923" />
      <path
         d="m 34.841292,12.221131 -0.795818,2.046388 q -0.248047,0.547771 -0.69591,0.547771 -0.125746,0 -0.210151,-0.02239 v -0.332452 q 0.09474,0.03101 0.172255,0.03101 0.223932,0 0.334175,-0.220486 l 0.118856,-0.289389 -0.701078,-1.760445 h 0.442695 l 0.420302,1.281577 q 0.0069,0.02412 0.03101,0.127468 h 0.0086 q 0.0086,-0.03962 0.03101,-0.124023 l 0.440972,-1.285022 z"
         style="font-style:normal;font-variant:normal;font-weight:600;font-stretch:normal;font-size:3.52778px;font-family:'Segoe UI';-inkscape-font-specification:'Segoe UI Semi-Bold';text-align:center;text-anchor:middle;fill:#d4aa00;stroke-width:0.264583"
         id="path925" />
      <path
         d="m 35.513085,13.730084 h -0.0069 v 0.254937 h -0.399631 v -2.611384 h 0.399631 v 1.157553 h 0.0069 q 0.204984,-0.3514 0.599447,-0.3514 0.334175,0 0.521933,0.237712 0.18948,0.235989 0.18948,0.633898 0,0.442695 -0.211874,0.70969 -0.211873,0.265273 -0.578776,0.265273 -0.34451,0 -0.52021,-0.296279 z m -0.01033,-0.701077 v 0.218764 q 0,0.192925 0.122301,0.327284 0.124023,0.134359 0.313504,0.134359 0.222209,0 0.347955,-0.172255 0.127468,-0.173978 0.127468,-0.484036 0,-0.260105 -0.118856,-0.406522 -0.117133,-0.148139 -0.318671,-0.148139 -0.213596,0 -0.34451,0.151584 -0.129191,0.151584 -0.129191,0.378961 z"
         style="font-style:normal;font-variant:normal;font-weight:600;font-stretch:normal;font-size:3.52778px;font-family:'Segoe UI';-inkscape-font-specification:'Segoe UI Semi-Bold';text-align:center;text-anchor:middle;fill:#d4aa00;stroke-width:0.264583"
         id="path927" />
      <path
         d="m 38.770425,13.985021 h -0.399631 v -0.279052 h -0.0069 q -0.173978,0.320394 -0.54088,0.320394 -0.625286,0 -0.625286,-0.751032 v -1.0542 h 0.399632 v 1.012859 q 0,0.475424 0.366903,0.475424 0.177422,0 0.29111,-0.130914 0.115411,-0.130914 0.115411,-0.342787 v -1.014582 h 0.399631 z"
         style="font-style:normal;font-variant:normal;font-weight:600;font-stretch:normal;font-size:3.52778px;font-family:'Segoe UI';-inkscape-font-specification:'Segoe UI Semi-Bold';text-align:center;text-anchor:middle;fill:#d4aa00;stroke-width:0.264583"
         id="path929" />
      <path
         d="m 40.553264,13.904062 q -0.211873,0.122301 -0.501261,0.122301 -0.392741,0 -0.633898,-0.244602 -0.241157,-0.246325 -0.241157,-0.637343 0,-0.435805 0.258382,-0.699355 0.260105,-0.265273 0.694187,-0.265273 0.241157,0 0.42547,0.08441 v 0.372071 q -0.184313,-0.137804 -0.392741,-0.137804 -0.253215,0 -0.415134,0.172255 -0.16192,0.170532 -0.16192,0.447862 0,0.273886 0.151584,0.43236 0.153307,0.158475 0.409967,0.158475 0.215319,0 0.406521,-0.153307 z"
         style="font-style:normal;font-variant:normal;font-weight:600;font-stretch:normal;font-size:3.52778px;font-family:'Segoe UI';-inkscape-font-specification:'Segoe UI Semi-Bold';text-align:center;text-anchor:middle;fill:#d4aa00;stroke-width:0.264583"
         id="path931" />
      <path
         d="m 41.349081,13.910952 q 0,0.434082 -0.18259,0.668349 -0.18259,0.235989 -0.521932,0.235989 -0.125747,0 -0.244602,-0.05512 v -0.342787 q 0.111965,0.07752 0.211873,0.07752 0.33762,0 0.33762,-0.596002 v -1.677763 h 0.399631 z M 41.15271,11.850783 q -0.09819,0 -0.168809,-0.06373 -0.0689,-0.06373 -0.0689,-0.161919 0,-0.09819 0.0689,-0.163643 0.07062,-0.06546 0.168809,-0.06546 0.09991,0 0.170533,0.06546 0.07062,0.06546 0.07062,0.163643 0,0.09302 -0.07062,0.160197 -0.07062,0.06546 -0.170533,0.06546 z"
         style="font-style:normal;font-variant:normal;font-weight:600;font-stretch:normal;font-size:3.52778px;font-family:'Segoe UI';-inkscape-font-specification:'Segoe UI Semi-Bold';text-align:center;text-anchor:middle;fill:#d4aa00;stroke-width:0.264583"
         id="path933" />
      <path
         d="m 42.07255,11.850783 q -0.09819,0 -0.16881,-0.06373 -0.0689,-0.06373 -0.0689,-0.161919 0,-0.09819 0.0689,-0.163643 0.07062,-0.06546 0.16881,-0.06546 0.10163,0 0.172255,0.06546 0.07062,0.06546 0.07062,0.163643 0,0.09302 -0.07062,0.160197 -0.07062,0.06546 -0.172255,0.06546 z m 0.198093,2.134238 h -0.399631 v -1.76389 h 0.399631 z"
         style="font-style:normal;font-variant:normal;font-weight:600;font-stretch:normal;font-size:3.52778px;font-family:'Segoe UI';-inkscape-font-specification:'Segoe UI Semi-Bold';text-align:center;text-anchor:middle;fill:#d4aa00;stroke-width:0.264583"
         id="path935" />
      <path
         d="m 13.225887,18.394747 h -1.367703 v -2.470136 h 0.409966 v 2.123903 h 0.957737 z"
         style="font-style:normal;font-variant:normal;font-weight:600;font-stretch:normal;font-size:3.52778px;font-family:'Segoe UI';-inkscape-font-specification:'Segoe UI Semi-Bold';text-align:center;text-anchor:middle;fill:#d4aa00;stroke-width:0.264583"
         id="path937" />
      <path
         d="m 13.739207,16.260509 q -0.09819,0 -0.16881,-0.06373 -0.0689,-0.06373 -0.0689,-0.161919 0,-0.09819 0.0689,-0.163643 0.07062,-0.06546 0.16881,-0.06546 0.10163,0 0.172255,0.06546 0.07062,0.06546 0.07062,0.163643 0,0.09302 -0.07062,0.160197 -0.07062,0.06546 -0.172255,0.06546 z m 0.198093,2.134238 h -0.399631 v -1.76389 H 13.9373 Z"
         style="font-style:normal;font-variant:normal;font-weight:600;font-stretch:normal;font-size:3.52778px;font-family:'Segoe UI';-inkscape-font-specification:'Segoe UI Semi-Bold';text-align:center;text-anchor:middle;fill:#d4aa00;stroke-width:0.264583"
         id="path939" />
      <path
         d="m 16.030197,18.394747 h -0.399632 v -0.993911 q 0,-0.494372 -0.349677,-0.494372 -0.18259,0 -0.301446,0.137804 -0.118856,0.136082 -0.118856,0.34451 v 1.005969 h -0.401354 v -1.76389 h 0.401354 v 0.292833 h 0.0069 q 0.198093,-0.334175 0.571886,-0.334175 0.287666,0 0.43925,0.187758 0.151585,0.186035 0.151585,0.539158 z"
         style="font-style:normal;font-variant:normal;font-weight:600;font-stretch:normal;font-size:3.52778px;font-family:'Segoe UI';-inkscape-font-specification:'Segoe UI Semi-Bold';text-align:center;text-anchor:middle;fill:#d4aa00;stroke-width:0.264583"
         id="path941" />
      <path
         d="m 18.055914,18.394747 h -0.399631 v -0.279053 h -0.0069 q -0.173978,0.320394 -0.540881,0.320394 -0.625285,0 -0.625285,-0.751032 v -1.054199 h 0.399631 v 1.012858 q 0,0.475424 0.366903,0.475424 0.177423,0 0.291111,-0.130914 0.115411,-0.130914 0.115411,-0.342787 v -1.014581 h 0.399631 z"
         style="font-style:normal;font-variant:normal;font-weight:600;font-stretch:normal;font-size:3.52778px;font-family:'Segoe UI';-inkscape-font-specification:'Segoe UI Semi-Bold';text-align:center;text-anchor:middle;fill:#d4aa00;stroke-width:0.264583"
         id="path943" />
      <path
         d="m 20.050626,16.630857 -0.587389,0.89228 0.580499,0.87161 H 19.58037 l -0.310059,-0.546048 q -0.02928,-0.04995 -0.0689,-0.127469 h -0.0069 q -0.0069,0.0155 -0.07235,0.127469 l -0.315226,0.546048 h -0.461644 l 0.599447,-0.86472 -0.568441,-0.89917 h 0.465089 l 0.304891,0.573608 q 0.03445,0.06374 0.06718,0.130914 h 0.0052 l 0.394463,-0.704522 z"
         style="font-style:normal;font-variant:normal;font-weight:600;font-stretch:normal;font-size:3.52778px;font-family:'Segoe UI';-inkscape-font-specification:'Segoe UI Semi-Bold';text-align:center;text-anchor:middle;fill:#d4aa00;stroke-width:0.264583"
         id="path945" />
      <path
         d="m 21.697382,18.394747 h -0.387573 v -0.275608 h -0.0069 q -0.182591,0.316949 -0.535713,0.316949 -0.260105,0 -0.408244,-0.141249 -0.146417,-0.141249 -0.146417,-0.373793 0,-0.49954 0.575332,-0.582222 l 0.523654,-0.07407 q 0,-0.377238 -0.35829,-0.377238 -0.315226,0 -0.568441,0.217041 V 16.75488 q 0.279053,-0.165365 0.644233,-0.165365 0.668349,0 0.668349,0.658014 z m -0.385851,-0.866443 -0.370348,0.05168 q -0.172254,0.02239 -0.260104,0.08441 -0.08613,0.06029 -0.08613,0.213596 0,0.111966 0.07924,0.184313 0.08096,0.07062 0.215319,0.07062 0.18259,0 0.301446,-0.127468 0.120578,-0.129192 0.120578,-0.32384 z"
         style="font-style:normal;font-variant:normal;font-weight:600;font-stretch:normal;font-size:3.52778px;font-family:'Segoe UI';-inkscape-font-specification:'Segoe UI Semi-Bold';text-align:center;text-anchor:middle;fill:#d4aa00;stroke-width:0.264583"
         id="path947" />
      <path
         d="m 24.725624,18.394747 h -0.399632 v -0.993911 q 0,-0.494372 -0.349677,-0.494372 -0.18259,0 -0.301446,0.137804 -0.118856,0.136082 -0.118856,0.34451 v 1.005969 h -0.401354 v -1.76389 h 0.401354 v 0.292833 h 0.0069 q 0.198093,-0.334175 0.571886,-0.334175 0.287666,0 0.43925,0.187758 0.151585,0.186035 0.151585,0.539158 z"
         style="font-style:normal;font-variant:normal;font-weight:600;font-stretch:normal;font-size:3.52778px;font-family:'Segoe UI';-inkscape-font-specification:'Segoe UI Semi-Bold';text-align:center;text-anchor:middle;fill:#d4aa00;stroke-width:0.264583"
         id="path949" />
      <path
         d="m 26.567028,18.394747 h -0.387573 v -0.275608 h -0.0069 q -0.18259,0.316949 -0.535713,0.316949 -0.260105,0 -0.408244,-0.141249 -0.146417,-0.141249 -0.146417,-0.373793 0,-0.49954 0.575332,-0.582222 l 0.523654,-0.07407 q 0,-0.377238 -0.35829,-0.377238 -0.315226,0 -0.568441,0.217041 V 16.75488 q 0.279053,-0.165365 0.644233,-0.165365 0.668349,0 0.668349,0.658014 z m -0.385851,-0.866443 -0.370348,0.05168 q -0.172254,0.02239 -0.260104,0.08441 -0.08613,0.06029 -0.08613,0.213596 0,0.111966 0.07924,0.184313 0.08096,0.07062 0.215319,0.07062 0.18259,0 0.301446,-0.127468 0.120578,-0.129192 0.120578,-0.32384 z"
         style="font-style:normal;font-variant:normal;font-weight:600;font-stretch:normal;font-size:3.52778px;font-family:'Segoe UI';-inkscape-font-specification:'Segoe UI Semi-Bold';text-align:center;text-anchor:middle;fill:#d4aa00;stroke-width:0.264583"
         id="path951" />
      <path
         d="m 27.914061,18.339625 v -0.370348 q 0.223931,0.170532 0.494372,0.170532 0.361735,0 0.361735,-0.213596 0,-0.06029 -0.03101,-0.10163 -0.03101,-0.04306 -0.08441,-0.07579 -0.05168,-0.03273 -0.124023,-0.05857 -0.07062,-0.02584 -0.158475,-0.05857 -0.10852,-0.04306 -0.19637,-0.0913 -0.08613,-0.04823 -0.144695,-0.10852 -0.05684,-0.06201 -0.08613,-0.139527 -0.02928,-0.07751 -0.02928,-0.180867 0,-0.127469 0.06029,-0.223932 0.06029,-0.09819 0.161919,-0.163642 0.101631,-0.06718 0.230822,-0.09991 0.129191,-0.03445 0.266995,-0.03445 0.244602,0 0.437527,0.07407 v 0.349677 q -0.186035,-0.127468 -0.427192,-0.127468 -0.07579,0 -0.137804,0.0155 -0.06029,0.0155 -0.103352,0.04306 -0.04306,0.02756 -0.06718,0.06718 -0.02412,0.0379 -0.02412,0.08441 0,0.05684 0.02412,0.09646 0.02412,0.03962 0.07062,0.07062 0.04823,0.02928 0.113688,0.05512 0.06718,0.02412 0.153307,0.0534 0.113688,0.04651 0.20326,0.09474 0.0913,0.04823 0.15503,0.110243 0.06373,0.06029 0.09819,0.141249 0.03445,0.07924 0.03445,0.18948 0,0.134359 -0.06201,0.234267 -0.06201,0.09991 -0.165364,0.165365 -0.103353,0.06546 -0.239435,0.09646 -0.134358,0.03273 -0.28422,0.03273 -0.289388,0 -0.501262,-0.09646 z m 1.160998,-2.607939 -0.492649,0.564996 h -0.296278 l 0.416856,-0.564996 z"
         style="font-style:normal;font-variant:normal;font-weight:600;font-stretch:normal;font-size:3.52778px;font-family:'Segoe UI';-inkscape-font-specification:'Segoe UI Semi-Bold';text-align:center;text-anchor:middle;fill:#d4aa00;stroke-width:0.264583"
         id="path953" />
      <path
         d="m 31.917265,16.630857 -0.520209,1.76389 h -0.41858 l -0.320394,-1.195449 q -0.01895,-0.0689 -0.02412,-0.15503 h -0.0069 q -0.0034,0.05857 -0.03101,0.151585 l -0.347955,1.198894 h -0.409966 l -0.518487,-1.76389 h 0.413411 l 0.320394,1.271241 q 0.0155,0.05684 0.02067,0.151584 h 0.01206 q 0.0052,-0.07235 0.02756,-0.15503 l 0.356567,-1.267795 h 0.375516 l 0.316949,1.276408 q 0.0155,0.06029 0.02239,0.151585 h 0.01206 q 0.0034,-0.06374 0.02584,-0.151585 l 0.313504,-1.276408 z"
         style="font-style:normal;font-variant:normal;font-weight:600;font-stretch:normal;font-size:3.52778px;font-family:'Segoe UI';-inkscape-font-specification:'Segoe UI Semi-Bold';text-align:center;text-anchor:middle;fill:#d4aa00;stroke-width:0.264583"
         id="path955" />
      <path
         d="m 32.415082,16.260509 q -0.09819,0 -0.16881,-0.06373 -0.0689,-0.06373 -0.0689,-0.161919 0,-0.09819 0.0689,-0.163643 0.07062,-0.06546 0.16881,-0.06546 0.10163,0 0.172255,0.06546 0.07062,0.06546 0.07062,0.163643 0,0.09302 -0.07062,0.160197 -0.07062,0.06546 -0.172255,0.06546 z m 0.198093,2.134238 h -0.399631 v -1.76389 h 0.399631 z"
         style="font-style:normal;font-variant:normal;font-weight:600;font-stretch:normal;font-size:3.52778px;font-family:'Segoe UI';-inkscape-font-specification:'Segoe UI Semi-Bold';text-align:center;text-anchor:middle;fill:#d4aa00;stroke-width:0.264583"
         id="path957" />
      <path
         d="m 34.628558,17.621322 h -1.202339 q 0.0069,0.244602 0.149861,0.377238 0.144694,0.132637 0.396187,0.132637 0.282498,0 0.518487,-0.16881 v 0.322116 q -0.241157,0.151585 -0.637343,0.151585 -0.389296,0 -0.611505,-0.239435 -0.220486,-0.241156 -0.220486,-0.676961 0,-0.411689 0.242879,-0.670072 0.244602,-0.260105 0.606337,-0.260105 0.361735,0 0.559829,0.232544 0.198093,0.232545 0.198093,0.645956 z m -0.385851,-0.282498 q -0.0017,-0.215319 -0.101631,-0.334174 -0.09991,-0.120579 -0.275607,-0.120579 -0.172255,0 -0.292834,0.125746 -0.118856,0.125746 -0.146416,0.329007 z"
         style="font-style:normal;font-variant:normal;font-weight:600;font-stretch:normal;font-size:3.52778px;font-family:'Segoe UI';-inkscape-font-specification:'Segoe UI Semi-Bold';text-align:center;text-anchor:middle;fill:#d4aa00;stroke-width:0.264583"
         id="path959" />
      <path
         d="m 36.271868,18.313787 q -0.211873,0.122301 -0.501261,0.122301 -0.392742,0 -0.633898,-0.244602 -0.241157,-0.246325 -0.241157,-0.637343 0,-0.435805 0.258382,-0.699355 0.260105,-0.265273 0.694187,-0.265273 0.241157,0 0.42547,0.08441 v 0.372071 q -0.184313,-0.137804 -0.392741,-0.137804 -0.253215,0 -0.415135,0.172255 -0.161919,0.170532 -0.161919,0.447862 0,0.273886 0.151584,0.43236 0.153307,0.158475 0.409967,0.158475 0.215318,0 0.406521,-0.153307 z"
         style="font-style:normal;font-variant:normal;font-weight:600;font-stretch:normal;font-size:3.52778px;font-family:'Segoe UI';-inkscape-font-specification:'Segoe UI Semi-Bold';text-align:center;text-anchor:middle;fill:#d4aa00;stroke-width:0.264583"
         id="path961" />
      <path
         d="m 36.869594,16.260509 q -0.09819,0 -0.16881,-0.06373 -0.0689,-0.06373 -0.0689,-0.161919 0,-0.09819 0.0689,-0.163643 0.07062,-0.06546 0.16881,-0.06546 0.10163,0 0.172254,0.06546 0.07062,0.06546 0.07062,0.163643 0,0.09302 -0.07062,0.160197 -0.07062,0.06546 -0.172254,0.06546 z m 0.198093,2.134238 h -0.399632 v -1.76389 h 0.399632 z"
         style="font-style:normal;font-variant:normal;font-weight:600;font-stretch:normal;font-size:3.52778px;font-family:'Segoe UI';-inkscape-font-specification:'Segoe UI Semi-Bold';text-align:center;text-anchor:middle;fill:#d4aa00;stroke-width:0.264583"
         id="path963" />
      <path
         d="m 39.083067,17.621322 h -1.202339 q 0.0069,0.244602 0.149862,0.377238 0.144694,0.132637 0.396186,0.132637 0.282498,0 0.518488,-0.16881 v 0.322116 q -0.241157,0.151585 -0.637344,0.151585 -0.389296,0 -0.611504,-0.239435 -0.220487,-0.241156 -0.220487,-0.676961 0,-0.411689 0.24288,-0.670072 0.244602,-0.260105 0.606337,-0.260105 0.361735,0 0.559828,0.232544 0.198093,0.232545 0.198093,0.645956 z m -0.385851,-0.282498 q -0.0017,-0.215319 -0.10163,-0.334174 -0.09991,-0.120579 -0.275608,-0.120579 -0.172255,0 -0.292833,0.125746 -0.118856,0.125746 -0.146417,0.329007 z"
         style="font-style:normal;font-variant:normal;font-weight:600;font-stretch:normal;font-size:3.52778px;font-family:'Segoe UI';-inkscape-font-specification:'Segoe UI Semi-Bold';text-align:center;text-anchor:middle;fill:#d4aa00;stroke-width:0.264583"
         id="path965" />
    </g>
  </g>
</svg>
